<?xml version="1.0" encoding="iso-8859-1"?>
<!-- Generator: Adobe Illustrator 19.0.0, SVG Export Plug-In . SVG Version: 6.00 Build 0)  -->
<svg version="1.1" id="Capa_1" xmlns="http://www.w3.org/2000/svg" xmlns:xlink="http://www.w3.org/1999/xlink" x="0px" y="0px"
	 viewBox="0 0 512 512" style="enable-background:new 0 0 512 512;" xml:space="preserve">
<g transform="matrix(1.25 0 0 -1.25 0 45)">
	<path style="fill:#F4900C;" d="M398.448-179.952c0,23.5-4.18,46.008-11.847,66.843c-5.24-61.375-37.967-92.917-72.162-78.234
		c-32.043,13.761-10.445,67.401-8.851,92.996C308.277-54.958,305.451-5.293,226.637,36c32.749-62.651,3.793-101.563-26.586-103.943
		c-33.683-2.62-64.542,28.956-53.151,80.216c-36.884-27.179-37.967-72.925-26.586-102.52c11.869-30.847-0.467-56.477-29.423-59.325
		c-32.339-3.189-50.314,34.641-33.74,94.922c-28.683-33.775-45.997-77.516-45.997-125.302C11.152-286.902,97.85-373.6,204.8-373.6
		S398.448-286.902,398.448-179.952z"/>
	<path style="fill:#FFCC4D;" d="M277.418-279.146c-23.978,9.603-17.554,26.097-23.728,60.27
		c-6.174,34.173-29.902,57.912-65.031,68.346c25.63-72.14-14.204-98.726-35.084-103.476c-21.324-4.853-42.751,0.012-45.2,45.644
		c-24.867-24.764-40.267-59.028-40.267-96.893c0-4.186,0.199-8.325,0.567-12.415C103.652-352.245,151.729-373.6,204.8-373.6
		s101.148,21.355,136.126,55.932c0.369,4.09,0.567,8.229,0.567,12.415c0,24.901-6.652,48.253-18.283,68.358
		C324.885-272.026,294.026-285.798,277.418-279.146z"/>
</g>
<g>
</g>
<g>
</g>
<g>
</g>
<g>
</g>
<g>
</g>
<g>
</g>
<g>
</g>
<g>
</g>
<g>
</g>
<g>
</g>
<g>
</g>
<g>
</g>
<g>
</g>
<g>
</g>
<g>
</g>
</svg>
