<?xml version="1.0" encoding="iso-8859-1"?>
<!-- Generator: Adobe Illustrator 19.1.0, SVG Export Plug-In . SVG Version: 6.00 Build 0)  -->
<svg version="1.1" id="Capa_1" xmlns="http://www.w3.org/2000/svg" xmlns:xlink="http://www.w3.org/1999/xlink" x="0px" y="0px"
	 viewBox="0 0 218.333 218.333" style="enable-background:new 0 0 218.333 218.333;" xml:space="preserve">
<g>
	<g id="group-10svg">
		<path id="path-1_1_" style="fill:#0CB04A;" d="M139.068,184.508h12.114c2.336,0,4.229,1.187,4.229,2.654
			c0,1.466-1.893,2.653-4.229,2.653h-0.564c-2.336,0-4.229,1.189-4.229,2.655c0,1.466,1.893,2.655,4.229,2.655h26.041
			c2.335,0,4.228,1.188,4.228,2.654s-1.893,2.654-4.228,2.654h-31.294H110.97c-2.336,0-4.229-1.188-4.229-2.654
			s1.893-2.654,4.229-2.654h7.228c2.335,0,4.228-1.189,4.228-2.655c0-1.466-1.893-2.655-4.228-2.655H83.802
			c-2.335,0-4.23-1.187-4.23-2.653c0-1.467,1.895-2.654,4.23-2.654h8.129H139.068z"/>
		<path id="path-2_1_" style="fill:#0CB04A;" d="M37.009,184.507h7.534c1.452,0,2.631,1.188,2.631,2.655
			c0,1.466-1.179,2.653-2.631,2.653h-0.351c-1.452,0-2.63,1.189-2.63,2.655c0,1.465,1.178,2.654,2.63,2.654H60.39
			c1.453,0,2.631,1.189,2.631,2.654c0,1.467-1.178,2.655-2.631,2.655H40.925H19.529c-1.451,0-2.629-1.188-2.629-2.655
			c0-1.465,1.178-2.654,2.629-2.654h4.496c1.453,0,2.631-1.189,2.631-2.654c0-1.466-1.178-2.655-2.631-2.655H2.63
			c-1.452,0-2.63-1.187-2.63-2.653c0-1.467,1.178-2.655,2.63-2.655h5.057H37.009z"/>
		<path id="path-3_1_" style="fill:#0CB04A;" d="M213.242,202.41c2.811,0,5.091-1.783,5.091-3.982c0-2.198-2.28-3.981-5.091-3.981
			h-15.601c-2.811,0-5.09,1.783-5.09,3.981c0,2.199,2.279,3.982,5.09,3.982H213.242z"/>
		<path id="path-4_1_" style="fill:#0CB04A;" d="M90.943,213.038c3.503,0,6.343-1.783,6.343-3.982c0-2.199-2.84-3.981-6.343-3.981
			H71.504c-3.503,0-6.343,1.782-6.343,3.981c0,2.199,2.84,3.982,6.343,3.982H90.943z"/>
		<path id="path-5_1_" style="fill:#0F1D27;" d="M92.754,123.178H81.346V92.391h11.408V123.178z"/>
		<path id="path-6_1_" style="fill:#0F1D27;" d="M92.754,176.254H81.346v-30.787h11.408V176.254z"/>
		<path id="path-7_1_" style="fill:#FF3A2F;" d="M90.625,185.814h62.155V71.159c0-17.003-13.914-30.787-31.077-30.787
			c-17.165,0-31.078,13.784-31.078,30.787V185.814z"/>
		<path id="path-8_1_" style="fill:#FF3A2F;" d="M19.191,185.814h62.155V71.159c0-17.003-13.914-30.787-31.078-30.787
			c-17.163,0-31.077,13.784-31.077,30.787V185.814z"/>
		<path id="path-9_1_" style="opacity:0.25;fill:#020403;enable-background:new    ;" d="M121.703,40.373
			c-2.463,0-4.847,0.313-7.144,0.85c13.714,3.2,23.934,15.373,23.934,29.937v114.655h14.287V71.159
			C152.78,54.157,138.866,40.373,121.703,40.373z"/>
		<path id="path-10_1_" style="opacity:0.25;fill:#020403;enable-background:new    ;" d="M50.269,40.373
			c-2.463,0-4.847,0.313-7.143,0.85c13.714,3.2,23.934,15.373,23.934,29.937v114.655h14.286V71.159
			C81.346,54.157,67.432,40.373,50.269,40.373z"/>
		<path id="path-11_1_" style="fill:#142A3B;" d="M121.703,44.683c-2.011,0-3.638-1.614-3.638-3.605V8.9
			c0-1.991,1.627-3.605,3.638-3.605c2.012,0,3.639,1.614,3.639,3.605v32.178C125.342,43.069,123.715,44.683,121.703,44.683z"/>
		<path id="path-12_1_" style="fill:#142A3B;" d="M179.044,131.383c-2.011,0-3.639-1.614-3.639-3.605V66.829
			c0-21.084-17.313-38.235-38.595-38.235H35.359c-2.012,0-3.639-1.614-3.639-3.605s1.627-3.605,3.639-3.605H136.81
			c25.294,0,45.873,20.387,45.873,45.445v60.949C182.683,129.77,181.055,131.383,179.044,131.383z"/>
		<path id="path-13_1_" style="fill:#FF3A2F;" d="M191.002,139.456c0,6.45-5.277,11.678-11.788,11.678
			c-6.51,0-11.789-5.228-11.789-11.678c0-6.449,5.279-11.677,11.789-11.677C185.725,127.779,191.002,133.008,191.002,139.456z"/>
		<path id="path-14_1_" style="opacity:0.25;fill:#020403;enable-background:new    ;" d="M180.621,127.919
			c1.995,2.092,3.237,4.895,3.237,7.999c0,6.45-5.277,11.678-11.788,11.678c-0.481,0-0.94-0.085-1.406-0.14
			c2.147,2.254,5.173,3.678,8.55,3.678c6.511,0,11.788-5.228,11.788-11.678C191.002,133.486,186.46,128.617,180.621,127.919z"/>
		<path id="path-15_1_" style="fill:#FF3A2F;" d="M128.846,24.801c0,4.104-3.358,7.431-7.501,7.431s-7.502-3.327-7.502-7.431
			c0-4.105,3.359-7.432,7.502-7.432S128.846,20.696,128.846,24.801z"/>
		<path id="path-16_1_" style="fill:#142A3B;" d="M50.27,44.683c-2.012,0-3.64-1.614-3.64-3.605V8.9c0-1.991,1.628-3.605,3.64-3.605
			c2.011,0,3.638,1.614,3.638,3.605v32.178C53.908,43.069,52.281,44.683,50.27,44.683z"/>
		<path id="path-17" style="fill:#FF3A2F;" d="M57.413,24.801c0,4.104-3.359,7.431-7.502,7.431s-7.501-3.327-7.501-7.431
			c0-4.105,3.358-7.432,7.501-7.432S57.413,20.696,57.413,24.801z"/>
		<path id="path-18" style="fill:#FBB713;" d="M152.78,153.967H90.625V92.391h62.155V153.967z"/>
		<path id="path-19" style="fill:#FBB713;" d="M81.346,153.967H19.191V92.391h62.155V153.967z"/>
		<path id="path-20" style="fill:#FFFFFF;" d="M26.336,138.461c-2.012,0-3.639-1.614-3.639-3.605V78.236
			c0-11.644,5.877-22.409,15.721-28.794c1.68-1.094,3.937-0.623,5.04,1.041c1.097,1.665,0.628,3.9-1.053,4.99
			c-7.782,5.05-12.431,13.559-12.431,22.763v56.619C29.974,136.846,28.347,138.461,26.336,138.461z"/>
		<path id="path-21" style="fill:#FFFFFF;" d="M97.767,138.461c-2.012,0-3.639-1.614-3.639-3.605V78.236
			c0-11.643,5.877-22.407,15.725-28.794c1.684-1.094,3.936-0.623,5.038,1.041c1.097,1.665,0.629,3.9-1.052,4.99
			c-7.785,5.05-12.433,13.56-12.433,22.763v56.619C101.406,136.846,99.778,138.461,97.767,138.461z"/>
		<path id="path-22" style="opacity:0.25;fill:#020403;enable-background:new    ;" d="M138.493,92.391v61.575h14.287V92.391
			H138.493z"/>
		<path id="path-23" style="opacity:0.25;fill:#020403;enable-background:new    ;" d="M67.06,92.391v61.575h14.286V92.391H67.06z"
			/>
		<path id="path-24" style="fill:#142A3B;" d="M133.761,126.783h-24.825c-2.011,0-3.64-1.613-3.64-3.605
			c0-1.991,1.629-3.604,3.64-3.604h24.825c2.012,0,3.638,1.613,3.638,3.604C137.399,125.17,135.773,126.783,133.761,126.783z"/>
		<path id="path-25" style="fill:#142A3B;" d="M62.325,126.783H37.501c-2.011,0-3.638-1.613-3.638-3.605
			c0-1.991,1.627-3.604,3.638-3.604h24.824c2.012,0,3.64,1.613,3.64,3.604C65.965,125.17,64.337,126.783,62.325,126.783z"/>
	</g>
</g>
<g>
</g>
<g>
</g>
<g>
</g>
<g>
</g>
<g>
</g>
<g>
</g>
<g>
</g>
<g>
</g>
<g>
</g>
<g>
</g>
<g>
</g>
<g>
</g>
<g>
</g>
<g>
</g>
<g>
</g>
</svg>
